<svg xmlns="http://www.w3.org/2000/svg" width="128" height="128" viewBox="0 0 128 128">
  <defs>
    <linearGradient id="grad128" x1="0%" y1="0%" x2="100%" y2="100%">
      <stop offset="0%" style="stop-color:#00D4FF;stop-opacity:1" />
      <stop offset="50%" style="stop-color:#8B5CF6;stop-opacity:1" />
      <stop offset="100%" style="stop-color:#FF006E;stop-opacity:1" />
    </linearGradient>
    <filter id="glow128" x="-50%" y="-50%" width="200%" height="200%">
      <feGaussianBlur stdDeviation="4" result="coloredBlur"/>
      <feMerge>
        <feMergeNode in="coloredBlur"/>
        <feMergeNode in="SourceGraphic"/>
      </feMerge>
    </filter>
    <filter id="innerShadow">
      <feOffset dx="0" dy="2"/>
      <feGaussianBlur stdDeviation="2"/>
      <feComposite operator="out" in="SourceGraphic"/>
      <feColorMatrix type="matrix" values="0 0 0 0 0 0 0 0 0 0 0 0 0 0 0 0 0 0 0.3 0"/>
      <feBlend in="SourceGraphic"/>
    </filter>
  </defs>
  
  <!-- Background -->
  <rect width="128" height="128" rx="28" fill="url(#grad128)"/>
  
  <!-- Subtle grid pattern -->
  <g opacity="0.1">
    <line x1="32" y1="0" x2="32" y2="128" stroke="white" stroke-width="0.5"/>
    <line x1="64" y1="0" x2="64" y2="128" stroke="white" stroke-width="0.5"/>
    <line x1="96" y1="0" x2="96" y2="128" stroke="white" stroke-width="0.5"/>
    <line x1="0" y1="32" x2="128" y2="32" stroke="white" stroke-width="0.5"/>
    <line x1="0" y1="64" x2="128" y2="64" stroke="white" stroke-width="0.5"/>
    <line x1="0" y1="96" x2="128" y2="96" stroke="white" stroke-width="0.5"/>
  </g>
  
  <!-- Lightning bolt icon -->
  <g filter="url(#glow128)">
    <path d="M70 16L32 72h32l-6 40 44-56H68l6-40z" fill="white" stroke="none" filter="url(#innerShadow)"/>
  </g>
  
  <!-- Sparkle accents -->
  <g fill="white" opacity="0.8">
    <circle cx="95" cy="28" r="3"/>
    <circle cx="105" cy="45" r="2"/>
    <circle cx="28" cy="95" r="2.5"/>
    <circle cx="22" cy="75" r="1.5"/>
  </g>
</svg>





